<?xml version="1.0" standalone="no"?>
<!DOCTYPE svg PUBLIC "-//W3C//DTD SVG 20010904//EN"
 "http://www.w3.org/TR/2001/REC-SVG-20010904/DTD/svg10.dtd">
<svg version="1.0" xmlns="http://www.w3.org/2000/svg"
 width="260.000000pt" height="260.000000pt" viewBox="0 0 260.000000 260.000000"
 preserveAspectRatio="xMidYMid meet">
<metadata>
Created by potrace 1.11, written by Peter Selinger 2001-2013
</metadata>
<g transform="translate(0.000000,260.000000) scale(0.100000,-0.100000)"
fill="#000000" stroke="none">
<path d="M983 2504 c-130 -25 -226 -59 -340 -120 l-83 -44 -259 0 -260 0 1
-347 c0 -299 -3 -360 -18 -433 -25 -117 -25 -362 -1 -479 65 -305 221 -551
467 -737 145 -110 346 -196 525 -224 81 -13 274 -16 355 -5 438 58 817 361
974 777 28 74 30 81 56 218 35 178 13 450 -49 612 l-10 27 91 3 92 3 -1 68
c-1 37 -2 72 -2 77 -1 6 -51 10 -129 10 l-128 0 -18 33 c-22 39 -127 179 -141
189 -5 4 82 7 195 7 113 0 226 0 253 0 l47 1 0 80 0 80 -342 0 -343 0 -45 31
c-79 53 -217 119 -295 140 -16 4 -55 14 -85 23 -141 38 -345 42 -507 10z
m-634 -337 c-8 -7 -45 -48 -81 -93 l-65 -81 0 86 c0 47 2 89 4 94 2 4 39 7 81
7 63 -1 74 -3 61 -13z"/>
</g>
</svg>
